<svg width="1115" height="152" viewBox="0 0 1115 152" xmlns="http://www.w3.org/2000/svg" xmlns:xlink="http://www.w3.org/1999/xlink"><title>Group</title><defs><linearGradient x1=".119%" y1="50.163%" x2="99.815%" y2="49.316%" id="a"><stop stop-opacity="0" offset="0%"/><stop offset="100%"/></linearGradient><linearGradient x1="96.477%" y1="49.687%" x2="2.386%" y2="50.311%" id="b"><stop stop-opacity="0" offset="0%"/><stop offset="100%"/></linearGradient><linearGradient x1=".084%" y1="50.207%" x2="99.681%" y2="49.547%" id="c"><stop stop-opacity="0" offset="0%"/><stop offset="100%"/></linearGradient><path id="d" d="M.262 47.79h36.476V.31H.262L36.738.213V47.79H.262V.311H0v47.478h.262V0H37v48H.262z"/></defs><g fill="none" fill-rule="evenodd"><path fill="#FFF" fill-rule="nonzero" d="M184.918 107H109v-1.975h74.82L200.302 76l1.698.889z"/><path fill="#FFF" fill-rule="nonzero" d="M33 76h383v2H33z"/><path d="M303.827 77.248l-16.093-29.333H144V46h144.934l16.592 30.24-1.699 1.008zM345.008 109H243.055v-2.016h100.854l17.392-30.24L363 77.752 345.008 109zM946 76.74V75l-246 .174V77z" fill="#FFF" fill-rule="nonzero"/><path fill="url(#a)" fill-rule="nonzero" d="M946.9 68l.1 13.898-28.9.102-.1-13.898z"/><path fill="url(#b)" fill-rule="nonzero" d="M143.1 58l-.1-21.901L179.9 36l.1 21.901zM30.1 87L30 65.098 66.9 65l.1 21.804zM107.1 117l-.1-21.901L143.9 95l.1 21.901zM241.1 118l-.1-21.901L277.9 96l.1 21.901z"/><path d="M558.5 152L427 75.95 558.5 0 690 75.95 558.5 152zm-127-76.05l127 73.348 127-73.348-127-73.348-127 73.348z" fill="#00BC7F" fill-rule="nonzero"/><path fill="#000" fill-rule="nonzero" d="M140.8 56.3l-14.7 8.5-14.7-8.5V37l14.7-8.5 14.7 8.5z"/><path d="M126.1 65.4l-15.2-8.8V36.7l15.2-8.8 15.2 8.8v19.9l-15.2 8.8zM111.9 56l14.2 8.2 14.2-8.2V37.2L126.1 29l-14.2 8.2V56z" fill="#FFF" fill-rule="nonzero"/><path d="M131.7 48.5c-1.4 1.5-3.3 2.4-5.5 2.4s-4.2-.9-5.5-2.4h-4.1v4.6l9.6 5.6 9.6-5.6v-4.6h-4.1zm-.2-6.1c0 3-2.4 5.4-5.3 5.4-3 0-5.4-2.3-5.3-5.4 0-3 2.4-5.3 5.3-5.3 2.9-.1 5.3 2.3 5.3 5.3z" fill="#FFF"/><path fill="#000" fill-rule="nonzero" d="M29.9 84.7l-14.7 8.5L.5 84.7V65.3l14.7-8.5 14.7 8.5z"/><path d="M15.2 93.8L0 85V65.1l15.2-8.8 15.2 8.8V85l-15.2 8.8zM1 84.4l14.2 8.2 14.2-8.2V65.6l-14.2-8.2L1 65.6v18.8z" fill="#FFF" fill-rule="nonzero"/><path d="M20.7 76.9c-1.4 1.5-3.3 2.4-5.5 2.4s-4.2-.9-5.5-2.4H5.6v4.6l9.6 5.6 9.6-5.6v-4.6h-4.1zm-.2-6.2c0 3-2.4 5.4-5.3 5.4-3 0-5.4-2.3-5.3-5.4 0-3 2.4-5.3 5.3-5.3 3 0 5.4 2.4 5.3 5.3z" fill="#FFF"/><path fill="#000" fill-rule="nonzero" d="M106.7 115.6l-14.8 8.5-14.7-8.5V96.3l14.7-8.5 14.8 8.5z"/><path d="M91.9 124.7l-15.2-8.8V96l15.2-8.8 15.2 8.8v19.9l-15.2 8.8zm-14.2-9.3l14.2 8.2 14.2-8.2V96.6l-14.2-8.2-14.2 8.2v18.8z" fill="#FFF" fill-rule="nonzero"/><path d="M97.5 107.8c-1.4 1.5-3.3 2.4-5.5 2.4s-4.2-.9-5.5-2.4h-4.1v4.6L92 118l9.6-5.6v-4.6h-4.1zm-.2-6.1c0 3-2.4 5.4-5.3 5.4-3 0-5.4-2.3-5.3-5.4 0-3 2.4-5.3 5.3-5.3 2.9-.1 5.3 2.3 5.3 5.3z" fill="#FFF"/><g><path fill="#000" fill-rule="nonzero" d="M240.8 115.6l-14.7 8.5-14.7-8.5V96.3l14.7-8.5 14.7 8.5z"/><path d="M226.1 124.7l-15.2-8.8V96l15.2-8.8 15.2 8.8v19.9l-15.2 8.8zm-14.3-9.3l14.2 8.2 14.2-8.2V96.6L226 88.4l-14.2 8.2v18.8z" fill="#FFF" fill-rule="nonzero"/><path d="M231.6 107.8c-1.4 1.5-3.3 2.4-5.5 2.4s-4.2-.9-5.5-2.4h-4.1v4.6l9.6 5.6 9.6-5.6v-4.6h-4.1zm-.2-6.1c0 3-2.4 5.4-5.3 5.4-3 0-5.4-2.3-5.3-5.4 0-3 2.4-5.3 5.3-5.3 2.9-.1 5.3 2.3 5.3 5.3z" fill="#FFF"/></g><path fill="url(#c)" fill-rule="nonzero" d="M416.9 67l.1 21.804-36.9.196-.1-21.902z"/><path fill="url(#b)" fill-rule="nonzero" d="M699.1 88l-.1-21.804L735.9 66l.1 21.804z"/><g transform="translate(600 92)"><mask id="e" fill="#fff"><use xlink:href="#d"/></mask><use fill="#FFF" xlink:href="#d"/><path fill="#000" mask="url(#e)" d="M28.838 0v1.117h7.074v45.767H1.088V1.117h27.75V0H0v48h37V0z"/><path fill="#000" mask="url(#e)" d="M6.402 18L5 15.405l.87-.537.9 1.666L12.498 13l.502.93zM6.402 28L5 25.405l.87-.537.9 1.666L12.498 23l.502.93zM6.402 36L5 33.405l.87-.537.9 1.666L12.498 31l.502.93zM16 17h16v-1H16zM16 26h16v-1H16zM16 36h16v-1H16z"/></g><g fill="#FFF"><path d="M557.23 79.584l4.923 3.048 7.045-4.067V58.253l-8.41 5.053v10.17l-8.778-4.894-3.312 2.014-3.034 1.869v20.326l8.007-5.078v-10.16l3.558 2.031zm0 26.414L530.542 90.75V60.293L557.008 45l26.909 15.25v30.5L557.367 106l-.138-.003z"/></g><g><path d="M989.5 45.573l37.475 20.927L989.5 87.427 952.025 66.5 989.5 45.573z" stroke="#FFF" opacity=".403"/><path fill="#FFF" opacity=".403" d="M1020 65.5l-8 4.5-8-4.5 8-4.5zM1008 58.5l-8 4.5-8-4.5 8-4.5zM1088 56.5l-8 4.5-8-4.5 8-4.5z"/><path fill="#FFF" d="M1059 93.5l-8 4.5-8-4.5 8-4.5z"/><path fill="#FFF" opacity=".403" d="M1088 77.5l-8 4.5-8-4.5 8-4.5z"/><path fill="#FFF" d="M1042 84.5l-8 4.5-8-4.5 8-4.5zM1024 93.5l-8 4.5-8-4.5 8-4.5z"/><path fill="#FFF" opacity=".403" d="M974.998 59L989 67l-14.002 8L961 67zM1090.998 59L1105 67l-14.002 8L1077 67z"/><path fill="#FFF" d="M1033.998 92l14.002 8-14.002 8-13.998-8z"/><path d="M1033.496 70.576L1070.992 92l-37.496 21.424L996.008 92l37.488-21.424z" stroke="#FFF"/><path d="M1077.5 46.576l36.495 20.924-36.495 20.924-36.495-20.924 36.495-20.924z" stroke="#FFF" opacity=".403"/></g></g></svg>