<?xml version="1.0" encoding="UTF-8" standalone="no"?>
<svg
   width="500mm"
   height="250mm"
   viewBox="0 0 500 250"
   version="1.1"
   id="svg100"
   inkscape:version="1.3 (0e150ed6c4, 2023-07-21)"
   sodipodi:docname="1.svg"
   xml:space="preserve"
   xmlns:inkscape="http://www.inkscape.org/namespaces/inkscape"
   xmlns:sodipodi="http://sodipodi.sourceforge.net/DTD/sodipodi-0.dtd"
   xmlns="http://www.w3.org/2000/svg"
   xmlns:svg="http://www.w3.org/2000/svg"
   xmlns:rdf="http://www.w3.org/1999/02/22-rdf-syntax-ns#"
   xmlns:cc="http://creativecommons.org/ns#"
   xmlns:dc="http://purl.org/dc/elements/1.1/"><defs
     id="defs94"><rect
       x="92.857143"
       y="654.28571"
       width="1788.5715"
       height="184.28572"
       id="rect1" /><rect
       x="8.5526247"
       y="39.28862"
       width="249.71167"
       height="109.89959"
       id="rect168" /><rect
       x="8.2853556"
       y="9.8889723"
       width="431.14025"
       height="33.301244"
       id="rect162" /><rect
       x="3.474504"
       y="191.36497"
       width="74.68869"
       height="6.4080529"
       id="rect136" /><rect
       x="3.474504"
       y="197.77945"
       width="253.90605"
       height="17.907059"
       id="rect130" /><rect
       x="8.5526247"
       y="193.50314"
       width="281.70209"
       height="12.828937"
       id="rect124" /><rect
       x="3.474504"
       y="191.36497"
       width="74.68869"
       height="6.4080529"
       id="rect136-3" /><rect
       x="3.474504"
       y="191.36497"
       width="74.68869"
       height="6.4080529"
       id="rect118" /><linearGradient
       id="cvfb"
       x1="143"
       x2="143"
       y1="832"
       y2="879"
       gradientUnits="userSpaceOnUse"
       inkscape:collect="always"><stop
         style="stop-color:#fff"
         offset="0"
         id="stop1" /><stop
         style="stop-color:#fff;stop-opacity:0"
         offset="1"
         id="stop2" /></linearGradient><radialGradient
       id="cvfa"
       cx="117"
       cy="98.3"
       r="55.9"
       gradientTransform="matrix(0.974,1.51,-0.836,0.54,79.6,-130)"
       gradientUnits="userSpaceOnUse"
       inkscape:collect="always"><stop
         offset="0"
         id="stop3" /><stop
         style="stop-opacity:.897"
         offset="1"
         id="stop4" /></radialGradient></defs><sodipodi:namedview
     id="base"
     pagecolor="#7c7c7c"
     bordercolor="#666666"
     borderopacity="1.0"
     inkscape:pageopacity="0.0"
     inkscape:pageshadow="2"
     inkscape:zoom="0.7"
     inkscape:cx="959.28571"
     inkscape:cy="325.71429"
     inkscape:document-units="mm"
     inkscape:current-layer="layer1"
     inkscape:document-rotation="0"
     showgrid="false"
     inkscape:showpageshadow="2"
     inkscape:pagecheckerboard="0"
     inkscape:deskcolor="#d1d1d1"
     inkscape:window-width="2420"
     inkscape:window-height="1388"
     inkscape:window-x="140"
     inkscape:window-y="0"
     inkscape:window-maximized="1" /><metadata
     id="metadata97"><rdf:RDF><cc:Work
         rdf:about=""><dc:format>image/svg+xml</dc:format><dc:type
           rdf:resource="http://purl.org/dc/dcmitype/StillImage" /></cc:Work></rdf:RDF></metadata><g
     inkscape:label="Layer 1"
     inkscape:groupmode="layer"
     id="layer1"><rect
       style="fill:#898989;stroke-width:0.264583;fill-opacity:0.33980581"
       id="rect24"
       width="501.5744"
       height="251.73215"
       x="-1.1339284"
       y="-1.1339284" /><text
       xml:space="preserve"
       id="text122"
       style="font-style:normal;font-weight:normal;font-size:3.70417px;line-height:125%;font-family:Sans;letter-spacing:0px;word-spacing:0px;white-space:pre;shape-inside:url(#rect124);display:inline;fill:#000000;fill-opacity:1;stroke:none;stroke-width:0.264583px;stroke-linecap:butt;stroke-linejoin:miter;stroke-opacity:1" /><text
       xml:space="preserve"
       id="text128"
       style="font-style:normal;font-weight:normal;font-size:3.70417px;line-height:125%;font-family:Sans;letter-spacing:0px;word-spacing:0px;white-space:pre;shape-inside:url(#rect130);display:inline;fill:#000000;fill-opacity:1;stroke:none;stroke-width:0.264583px;stroke-linecap:butt;stroke-linejoin:miter;stroke-opacity:1" /><text
       xml:space="preserve"
       id="text134"
       style="font-style:normal;font-weight:normal;font-size:4.93889px;line-height:125%;font-family:Sans;letter-spacing:0px;word-spacing:0px;white-space:pre;shape-inside:url(#rect136);display:inline;opacity:0.6;fill:#000000;fill-opacity:1;stroke:none;stroke-width:0.264583px;stroke-linecap:butt;stroke-linejoin:miter;stroke-opacity:1"
       x="146.35562"
       y="0"
       transform="translate(459.97948,49.771024)"><tspan
         x="29.130746"
         y="195.85901"
         id="tspan3"><tspan
           style="font-weight:bold;font-family:'Metro Sans';-inkscape-font-specification:'Metro Sans Bold';text-align:end;text-anchor:end;fill:#ffffff"
           id="tspan2">RISC-V Summit 2023</tspan></tspan></text><text
       xml:space="preserve"
       id="text160"
       style="font-style:normal;font-weight:normal;font-size:22.5778px;line-height:125%;font-family:Sans;letter-spacing:0px;word-spacing:0px;white-space:pre;shape-inside:url(#rect162);display:inline;fill:#000000;fill-opacity:1;stroke:none;stroke-width:0.264583px;stroke-linecap:butt;stroke-linejoin:miter;stroke-opacity:1"
       transform="translate(8.8824402,14.552083)"><tspan
         x="8.2851562"
         y="30.431652"
         id="tspan6"><tspan
           style="font-weight:bold;font-family:'Metro Sans';-inkscape-font-specification:'Metro Sans Bold';fill:#ffffff"
           id="tspan4">Testing your Go for RISC-V</tspan></tspan></text><text
       xml:space="preserve"
       id="text166"
       style="font-style:normal;font-weight:normal;font-size:14.1111px;line-height:125%;font-family:Sans;letter-spacing:0px;word-spacing:0px;white-space:pre;shape-inside:url(#rect168);display:inline;fill:#000000;fill-opacity:1;stroke:none;stroke-width:0.264583px;stroke-linecap:butt;stroke-linejoin:miter;stroke-opacity:1"
       transform="translate(7.3705354,26.269345)"><tspan
         x="8.5527344"
         y="52.128402"
         id="tspan8"><tspan
           style="font-weight:bold;font-family:'Metro Sans';-inkscape-font-specification:'Metro Sans Bold';fill:#ffffff"
           id="tspan7">Use QEMU emulation if needed.&#10;</tspan></tspan><tspan
         x="8.5527344"
         y="69.76728"
         id="tspan10"><tspan
           style="font-weight:bold;font-family:'Metro Sans';-inkscape-font-specification:'Metro Sans Bold';fill:#ffffff"
           id="tspan9">Linux on x86, Arm, or other:&#10;</tspan></tspan><tspan
         x="8.5527344"
         y="87.406158"
         id="tspan12"><tspan
           style="font-weight:bold;font-family:'Metro Sans';-inkscape-font-specification:'Metro Sans Bold';fill:#ffffff"
           id="tspan11">&#10;</tspan></tspan><tspan
         x="8.5527344"
         y="105.04504"
         id="tspan14"><tspan
           style="font-weight:bold;font-family:'Metro Sans';-inkscape-font-specification:'Metro Sans Bold';fill:#ffffff"
           id="tspan13">Docker/Podman static builds.&#10;</tspan></tspan><tspan
         x="8.5527344"
         y="122.68391"
         id="tspan16"><tspan
           style="font-weight:bold;font-family:'Metro Sans';-inkscape-font-specification:'Metro Sans Bold';fill:#ffffff"
           id="tspan15">qemu-user-static-riscv&#10;</tspan></tspan></text><text
       xml:space="preserve"
       style="font-style:normal;font-weight:normal;font-size:3.70417px;line-height:125%;font-family:Sans;letter-spacing:0px;word-spacing:0px;fill:#000000;fill-opacity:1;stroke:none;stroke-width:0.264583px;stroke-linecap:butt;stroke-linejoin:miter;stroke-opacity:1"
       x="306.02362"
       y="207.93568"
       id="text107"><tspan
         sodipodi:role="line"
         id="tspan105"
         x="306.02362"
         y="207.93568"
         style="stroke-width:0.264583px" /></text><g
       id="g24"
       transform="matrix(0.09782913,0,0,0.09782913,22.069141,212.47286)"><path
         class="st0"
         d="m -72.9,261.8 c 0,13.9 -8.4,26.4 -24.7,29.3 l 23,27.2 2.1,-2.9 41.5,-58.7 V 232 h -67.5 c 17.2,1.8 25.6,16 25.6,29.8 z m 466.5,51.2 -38,-65 h 16.3 l 29.7,51.5 29.6,-51.5 h 16 l -37.7,65 m -76.6,-38.6 h 27.2 V 287 h -27.2 z"
         id="path1" /><path
         class="st1"
         d="m -120.2,278.6 h 15.9 c 11.7,0 17.6,-8.3 17.6,-16.8 0,-8.4 -5.9,-16.3 -17.6,-16.3 h -21.8 v 81.7 h 40.7 l -34.8,-41.9 z m 59.1,44.4 30.6,-42.8 v 46.9 H -64.1 Z M 109,248 h 13.9 v 65 H 109 Z m 96.3,50.7 -72,-0.1 V 313 h 72.5 c 5.4,0 10,-2.1 13.9,-5.9 3.8,-3.8 5.9,-8.4 5.9,-13.9 0,-5.4 -2.1,-10 -5.9,-13.9 -3.8,-3.8 -8.4,-5.9 -13.9,-5.9 L 153,273.1 c -3.1,0 -5.6,-2.5 -5.6,-5.6 v 0 0 c 0,-3.1 2.5,-5.6 5.7,-5.6 l 72.4,-0.1 V 248 H 153 c -5.4,0 -10,2.1 -13.9,5.9 -3.8,3.8 -5.9,8.4 -5.9,13.9 0,5.5 2.1,10 5.9,13.9 3.8,3.8 8.3,5.4 13.9,5.4 h 52.7 c 3.1,0 5.7,2.5 5.6,5.7 v 0 0 c 0.1,3.2 -2.6,5.9 -6,5.9 z M 264.5,248 h 60 v 13.9 h -60 c -5,0 -9.2,1.6 -13,5.4 -3.8,3.8 -5.4,8 -5.4,13 0,5 1.7,9.2 5.4,13 3.8,3.8 8,5.4 13,5.4 h 60 V 313 h -59.9 c -8.8,0 -16.4,-3.4 -22.7,-9.7 -6.3,-6.3 -9.2,-13.9 -9.2,-22.6 0,-8.8 2.9,-16.3 9.2,-22.6 6.3,-6.7 13.9,-10.1 22.6,-10.1 z M 78.4,274.1 20.6,274 V 262.3 L 79,262.2 c 3.1,0 5.7,2.5 5.7,5.7 v 0 0 c 0,3.4 -2.8,6.2 -6.3,6.2 z M 99,313 80.5,287.4 c 5,-0.4 9.2,-2.1 12.6,-5.9 3.8,-3.8 5.9,-8.4 5.9,-13.9 0,-5.4 -2.1,-10 -5.9,-13.9 -3.8,-3.8 -8.4,-5.9 -13.9,-5.9 H 6.7 v 65 h 13.9 v -25.6 h 42.8 l 18.5,25.6 z m 374.9,-54.7 c 0,5.6 -4.4,10.1 -10.2,10.1 -5.7,0 -10.3,-4.4 -10.3,-10.1 0,-5.5 4.5,-10 10.3,-10 5.7,0.1 10.2,4.5 10.2,10 z m -18,0 c 0,4.4 3.3,8 7.8,8 4.4,0 7.6,-3.5 7.6,-7.9 0,-4.4 -3.2,-8 -7.7,-8 -4.4,0 -7.7,3.6 -7.7,7.9 z m 6.2,5.3 h -2.3 v -10 c 0.9,-0.2 2.2,-0.3 3.8,-0.3 1.9,0 2.7,0.3 3.4,0.7 0.5,0.4 1,1.2 1,2.2 0,1.1 -0.8,1.9 -2.1,2.3 v 0.2 c 1,0.4 1.5,1.1 1.8,2.4 0.3,1.5 0.5,2.1 0.7,2.5 H 466 c -0.3,-0.4 -0.5,-1.3 -0.8,-2.4 -0.2,-1.1 -0.8,-1.6 -2.1,-1.6 H 462 v 4 z m 0.1,-5.7 h 1.1 c 1.3,0 2.3,-0.4 2.3,-1.5 0,-0.9 -0.7,-1.5 -2.1,-1.5 -0.6,0 -1,0.1 -1.3,0.1 z"
         id="path2" /></g><g
       transform="matrix(0.62492983,0,0,0.62492983,225.34283,32.918201)"
       inkscape:label="Layer 1"
       id="g5"><path
         d="m 118,55.9 c -30.9,0 -55.9,24.9 -55.9,55.6 0,30.7 25,55.6 55.9,55.6 10.1,0 19.5,-2.65 27.7,-7.31 l 2.91,7.31 h 22.5 l -8.81,-21.8 c 7.22,-9.36 11.5,-21.1 11.5,-33.8 0,-30.7 -25,-55.6 -55.8,-55.6 z"
         style="fill:url(#cvfa)"
         inkscape:connector-curvature="0"
         id="path4" /><ellipse
         transform="matrix(1.05,0,0,1.29,-31.6,-1017)"
         cx="142"
         cy="856"
         rx="35.400002"
         ry="24.6"
         style="fill:url(#cvfb)"
         id="ellipse4" /><circle
         transform="translate(7.67,-778)"
         cx="116"
         cy="856"
         r="6.5700002"
         id="circle4" /><rect
         transform="matrix(0.99,0.143,-0.19,0.982,0,0)"
         x="125"
         y="65.300003"
         width="37.599998"
         height="5.5"
         id="rect4" /><rect
         x="145"
         y="89"
         width="6.5700002"
         height="2.9000001"
         id="rect5" /><path
         d="m 103,65 c -0.057,2.19 -3.87,0.283 -4.03,2.78 -4.22,-1.88 0.329,2.87 -0.0937,3.31 h -0.0312 l -0.312,-0.0312 c -0.204,-0.0728 -0.5,-0.199 -0.938,-0.469 -2.95,2.35 -3.02,7.23 -6.06,9.94 -1.99,4.31 -2.48,8.98 -3.94,13.5 -0.718,4.3 -1.35,8.6 -0.281,12.9 0.321,3.5 -0.689,8.26 2.5,10.7 4.73,3.88 8.66,8.8 12.6,13.5 6.22,7.65 11.7,15.9 16.6,24.4 0.324,-2.12 1.11,4.26 2.53,4.69 -0.492,-3.19 -1.13,-8.26 -1.44,-12.2 -1.58,-10.3 -6.65,-19.6 -8.56,-29.8 -0.0587,-0.43 -0.128,-0.872 -0.188,-1.31 v -1.28 h -0.156 c -0.626,-5.04 -0.85,-10.5 2.81,-14.4 3.74,-3.77 9.31,-4.72 13.8,-7.34 1,-0.591 2.05,-1.07 3.12,-1.41 0.009,-0.003 0.0228,0.003 0.0312,0 3.12,-0.963 6.45,-0.933 9.69,-0.406 0.0479,0.008 0.108,0.0233 0.156,0.0312 0.295,0.0493 0.614,0.099 0.906,0.156 2.37,0.211 7.14,1.14 8,-0.5 -3.27,-2.79 -7.99,-2.59 -12,-3.69 -0.631,-0.115 -1.41,-0.24 -2.19,-0.312 l -3.91,-0.875 -0.969,-0.25 v 0.0312 l -14,-2.72 c -0.222,-0.202 -0.464,-0.409 -0.688,-0.562 l 13.6,1.69 v -0.0625 c 0.48,0.107 0.956,0.194 1.44,0.25 v 0.0312 l 9.62,1.78 c 1.66,0.62 3.43,1.08 5.09,1.19 2.74,0.399 6.23,4.49 7.12,4.69 -0.441,-4.31 -4.74,-6.24 -8.31,-7.5 -4.17,-2.03 -10.4,-1.95 -11.1,-7.56 -0.176,-0.391 -0.349,-0.781 -0.562,-1.16 l -1.62,-2.16 0.0625,-0.0312 c -2.22,-2.62 -5.34,-4.52 -8.66,-5.25 -3.29,-1.14 -6.99,-2.27 -10.5,-2.72 -1.18,3.48 -2.5,-2.76 -5.34,-0.906 -2.49,0.295 -2.15,0.953 -4,-0.625 z m 17.9,10.2 c 0.902,-0.0238 1.93,0.142 2.97,0.5 2.76,0.954 4.56,2.97 4.03,4.5 -0.53,1.53 -3.21,1.99 -5.97,1.03 -2.76,-0.96 -4.56,-2.93 -4.03,-4.47 0.331,-0.959 1.5,-1.52 3,-1.56 z"
         style="fill:#ff6600"
         inkscape:connector-curvature="0"
         id="path5" /><text
         x="184.89412"
         y="166.37402"
         style="font-weight:bold;line-height:0%;font-family:sans-serif;letter-spacing:0px;word-spacing:0px;fill:#000000"
         xml:space="preserve"
         id="text5"><tspan
           x="184.89412"
           y="166.37402"
           style="font-size:95.5px;line-height:1.25;font-family:sans-serif;fill:#000000"
           sodipodi:role="line"
           id="tspan5">EMU</tspan></text></g><text
       xml:space="preserve"
       transform="matrix(0.26458333,0,0,0.26458333,-11.717262,4.9136907)"
       id="text1"
       style="font-weight:bold;font-size:42.6667px;font-family:Gilmer;-inkscape-font-specification:'Gilmer Bold';text-align:center;white-space:pre;shape-inside:url(#rect1);display:inline;fill:#7e7e7e;fill-opacity:0.437177"
       x="-325.31235"
       y="0"><tspan
         x="92.857422"
         y="693.32519"
         id="tspan18"><tspan
           style="font-weight:normal;font-family:Monospace;-inkscape-font-specification:Monospace;text-align:start;fill:#ffffff;fill-opacity:1"
           id="tspan17">$ podman run -ti --arch=riscv64 imbearchild/fedora-rv64 /bin/bash&#10;</tspan></tspan><tspan
         x="92.857422"
         y="746.87719"
         id="tspan20"><tspan
           style="font-weight:normal;font-family:Monospace;-inkscape-font-specification:Monospace;text-align:start;fill:#ffffff;fill-opacity:1"
           id="tspan19">riscv$ go build [your code]</tspan></tspan></text></g><style
     type="text/css"
     id="style1">&#10;	.st0{fill:#F5B21B;}&#10;	.st1{fill:#283272;}&#10;</style></svg>
