<?xml version="1.0" encoding="UTF-8" standalone="no"?>
<svg
   width="500mm"
   height="250mm"
   viewBox="0 0 500 250"
   version="1.1"
   id="svg100"
   inkscape:version="1.3 (0e150ed6c4, 2023-07-21)"
   sodipodi:docname="3.svg"
   xml:space="preserve"
   xmlns:inkscape="http://www.inkscape.org/namespaces/inkscape"
   xmlns:sodipodi="http://sodipodi.sourceforge.net/DTD/sodipodi-0.dtd"
   xmlns="http://www.w3.org/2000/svg"
   xmlns:svg="http://www.w3.org/2000/svg"
   xmlns:rdf="http://www.w3.org/1999/02/22-rdf-syntax-ns#"
   xmlns:cc="http://creativecommons.org/ns#"
   xmlns:dc="http://purl.org/dc/elements/1.1/"><defs
     id="defs94"><rect
       x="68.690373"
       y="369.71583"
       width="1703.1172"
       height="454.56864"
       id="rect3" /><rect
       x="66.670068"
       y="363.65492"
       width="1620.2847"
       height="430.32498"
       id="rect2" /><rect
       x="92.857143"
       y="654.28571"
       width="1788.5715"
       height="184.28572"
       id="rect1" /><rect
       x="8.5526247"
       y="39.28862"
       width="433.4081"
       height="160.17042"
       id="rect168" /><rect
       x="8.2853556"
       y="9.8889723"
       width="352.89918"
       height="36.70303"
       id="rect162" /><rect
       x="3.474504"
       y="191.36497"
       width="74.68869"
       height="6.4080529"
       id="rect136" /><rect
       x="3.474504"
       y="197.77945"
       width="253.90605"
       height="17.907059"
       id="rect130" /><rect
       x="8.5526247"
       y="193.50314"
       width="281.70209"
       height="12.828937"
       id="rect124" /><rect
       x="3.474504"
       y="191.36497"
       width="74.68869"
       height="6.4080529"
       id="rect136-3" /><rect
       x="3.474504"
       y="191.36497"
       width="74.68869"
       height="6.4080529"
       id="rect118" /></defs><sodipodi:namedview
     id="base"
     pagecolor="#7c7c7c"
     bordercolor="#666666"
     borderopacity="1.0"
     inkscape:pageopacity="0.0"
     inkscape:pageshadow="2"
     inkscape:zoom="0.49497475"
     inkscape:cx="981.86827"
     inkscape:cy="337.39095"
     inkscape:document-units="mm"
     inkscape:current-layer="layer1"
     inkscape:document-rotation="0"
     showgrid="false"
     inkscape:showpageshadow="2"
     inkscape:pagecheckerboard="0"
     inkscape:deskcolor="#d1d1d1"
     inkscape:window-width="1780"
     inkscape:window-height="1028"
     inkscape:window-x="140"
     inkscape:window-y="0"
     inkscape:window-maximized="1" /><metadata
     id="metadata97"><rdf:RDF><cc:Work
         rdf:about=""><dc:format>image/svg+xml</dc:format><dc:type
           rdf:resource="http://purl.org/dc/dcmitype/StillImage" /></cc:Work></rdf:RDF></metadata><g
     inkscape:label="Layer 1"
     inkscape:groupmode="layer"
     id="layer1"><rect
       style="fill:#898989;stroke-width:0.264583;fill-opacity:0.33980581"
       id="rect24"
       width="501.5744"
       height="251.73215"
       x="-1.1339284"
       y="-1.1339284" /><text
       xml:space="preserve"
       id="text122"
       style="font-style:normal;font-weight:normal;font-size:3.70417px;line-height:125%;font-family:Sans;letter-spacing:0px;word-spacing:0px;white-space:pre;shape-inside:url(#rect124);display:inline;fill:#000000;fill-opacity:1;stroke:none;stroke-width:0.264583px;stroke-linecap:butt;stroke-linejoin:miter;stroke-opacity:1" /><text
       xml:space="preserve"
       id="text128"
       style="font-style:normal;font-weight:normal;font-size:3.70417px;line-height:125%;font-family:Sans;letter-spacing:0px;word-spacing:0px;white-space:pre;shape-inside:url(#rect130);display:inline;fill:#000000;fill-opacity:1;stroke:none;stroke-width:0.264583px;stroke-linecap:butt;stroke-linejoin:miter;stroke-opacity:1" /><text
       xml:space="preserve"
       id="text134"
       style="font-style:normal;font-weight:normal;font-size:4.93889px;line-height:125%;font-family:Sans;letter-spacing:0px;word-spacing:0px;white-space:pre;shape-inside:url(#rect136);display:inline;opacity:0.6;fill:#000000;fill-opacity:1;stroke:none;stroke-width:0.264583px;stroke-linecap:butt;stroke-linejoin:miter;stroke-opacity:1"
       x="146.35562"
       y="0"
       transform="translate(459.97948,49.771024)"><tspan
         x="29.130746"
         y="195.85901"
         id="tspan5"><tspan
           style="font-weight:bold;font-family:'Metro Sans';-inkscape-font-specification:'Metro Sans Bold';text-align:end;text-anchor:end;fill:#ffffff"
           id="tspan4">RISC-V Summit 2023</tspan></tspan></text><text
       xml:space="preserve"
       id="text160"
       style="font-style:normal;font-weight:normal;font-size:22.5778px;line-height:125%;font-family:Sans;letter-spacing:0px;word-spacing:0px;white-space:pre;shape-inside:url(#rect162);display:inline;fill:#000000;fill-opacity:1;stroke:none;stroke-width:0.264583px;stroke-linecap:butt;stroke-linejoin:miter;stroke-opacity:1"
       transform="translate(8.8824402,14.552083)"><tspan
         x="8.2851562"
         y="30.431652"
         id="tspan7"><tspan
           style="font-weight:bold;font-family:'Metro Sans';-inkscape-font-specification:'Metro Sans Bold';fill:#ffffff"
           id="tspan6">Endian notes for RISC-V</tspan></tspan></text><text
       xml:space="preserve"
       id="text166"
       style="font-style:normal;font-weight:normal;font-size:14.1111px;line-height:125%;font-family:Sans;letter-spacing:0px;word-spacing:0px;white-space:pre;shape-inside:url(#rect168);display:inline;fill:#000000;fill-opacity:1;stroke:none;stroke-width:0.264583px;stroke-linecap:butt;stroke-linejoin:miter;stroke-opacity:1"
       transform="translate(8.1264878,27.78125)"><tspan
         x="8.5527344"
         y="52.128402"
         id="tspan9"><tspan
           style="font-weight:bold;font-family:'Metro Sans';-inkscape-font-specification:'Metro Sans Bold';fill:#ffffff"
           id="tspan8">Check or force endianness explicitly with bitwise ops.&#10;</tspan></tspan><tspan
         x="8.5527344"
         y="69.76728"
         id="tspan13"><tspan
           style="font-weight:bold;font-family:'Metro Sans';-inkscape-font-specification:'Metro Sans Bold';fill:#ffffff"
           id="tspan12">Checking x86_64 or aarch64 isn't enough:&#10;</tspan></tspan><tspan
         x="8.5527344"
         y="87.406158"
         id="tspan15"><tspan
           style="font-weight:bold;font-family:'Metro Sans';-inkscape-font-specification:'Metro Sans Bold';fill:#ffffff"
           id="tspan14">&#10;</tspan></tspan><tspan
         x="8.5527344"
         y="105.04504"
         id="tspan17"><tspan
           style="font-weight:bold;font-family:'Metro Sans';-inkscape-font-specification:'Metro Sans Bold';fill:#ffffff"
           id="tspan16">&#10;</tspan></tspan></text><text
       xml:space="preserve"
       style="font-style:normal;font-weight:normal;font-size:3.70417px;line-height:125%;font-family:Sans;letter-spacing:0px;word-spacing:0px;fill:#000000;fill-opacity:1;stroke:none;stroke-width:0.264583px;stroke-linecap:butt;stroke-linejoin:miter;stroke-opacity:1"
       x="306.02362"
       y="207.93568"
       id="text107"><tspan
         sodipodi:role="line"
         id="tspan105"
         x="306.02362"
         y="207.93568"
         style="stroke-width:0.264583px" /></text><g
       id="g24"
       transform="matrix(0.09782913,0,0,0.09782913,22.069141,212.47286)"><path
         class="st0"
         d="m -72.9,261.8 c 0,13.9 -8.4,26.4 -24.7,29.3 l 23,27.2 2.1,-2.9 41.5,-58.7 V 232 h -67.5 c 17.2,1.8 25.6,16 25.6,29.8 z m 466.5,51.2 -38,-65 h 16.3 l 29.7,51.5 29.6,-51.5 h 16 l -37.7,65 m -76.6,-38.6 h 27.2 V 287 h -27.2 z"
         id="path1" /><path
         class="st1"
         d="m -120.2,278.6 h 15.9 c 11.7,0 17.6,-8.3 17.6,-16.8 0,-8.4 -5.9,-16.3 -17.6,-16.3 h -21.8 v 81.7 h 40.7 l -34.8,-41.9 z m 59.1,44.4 30.6,-42.8 v 46.9 H -64.1 Z M 109,248 h 13.9 v 65 H 109 Z m 96.3,50.7 -72,-0.1 V 313 h 72.5 c 5.4,0 10,-2.1 13.9,-5.9 3.8,-3.8 5.9,-8.4 5.9,-13.9 0,-5.4 -2.1,-10 -5.9,-13.9 -3.8,-3.8 -8.4,-5.9 -13.9,-5.9 L 153,273.1 c -3.1,0 -5.6,-2.5 -5.6,-5.6 v 0 0 c 0,-3.1 2.5,-5.6 5.7,-5.6 l 72.4,-0.1 V 248 H 153 c -5.4,0 -10,2.1 -13.9,5.9 -3.8,3.8 -5.9,8.4 -5.9,13.9 0,5.5 2.1,10 5.9,13.9 3.8,3.8 8.3,5.4 13.9,5.4 h 52.7 c 3.1,0 5.7,2.5 5.6,5.7 v 0 0 c 0.1,3.2 -2.6,5.9 -6,5.9 z M 264.5,248 h 60 v 13.9 h -60 c -5,0 -9.2,1.6 -13,5.4 -3.8,3.8 -5.4,8 -5.4,13 0,5 1.7,9.2 5.4,13 3.8,3.8 8,5.4 13,5.4 h 60 V 313 h -59.9 c -8.8,0 -16.4,-3.4 -22.7,-9.7 -6.3,-6.3 -9.2,-13.9 -9.2,-22.6 0,-8.8 2.9,-16.3 9.2,-22.6 6.3,-6.7 13.9,-10.1 22.6,-10.1 z M 78.4,274.1 20.6,274 V 262.3 L 79,262.2 c 3.1,0 5.7,2.5 5.7,5.7 v 0 0 c 0,3.4 -2.8,6.2 -6.3,6.2 z M 99,313 80.5,287.4 c 5,-0.4 9.2,-2.1 12.6,-5.9 3.8,-3.8 5.9,-8.4 5.9,-13.9 0,-5.4 -2.1,-10 -5.9,-13.9 -3.8,-3.8 -8.4,-5.9 -13.9,-5.9 H 6.7 v 65 h 13.9 v -25.6 h 42.8 l 18.5,25.6 z m 374.9,-54.7 c 0,5.6 -4.4,10.1 -10.2,10.1 -5.7,0 -10.3,-4.4 -10.3,-10.1 0,-5.5 4.5,-10 10.3,-10 5.7,0.1 10.2,4.5 10.2,10 z m -18,0 c 0,4.4 3.3,8 7.8,8 4.4,0 7.6,-3.5 7.6,-7.9 0,-4.4 -3.2,-8 -7.7,-8 -4.4,0 -7.7,3.6 -7.7,7.9 z m 6.2,5.3 h -2.3 v -10 c 0.9,-0.2 2.2,-0.3 3.8,-0.3 1.9,0 2.7,0.3 3.4,0.7 0.5,0.4 1,1.2 1,2.2 0,1.1 -0.8,1.9 -2.1,2.3 v 0.2 c 1,0.4 1.5,1.1 1.8,2.4 0.3,1.5 0.5,2.1 0.7,2.5 H 466 c -0.3,-0.4 -0.5,-1.3 -0.8,-2.4 -0.2,-1.1 -0.8,-1.6 -2.1,-1.6 H 462 v 4 z m 0.1,-5.7 h 1.1 c 1.3,0 2.3,-0.4 2.3,-1.5 0,-0.9 -0.7,-1.5 -2.1,-1.5 -0.6,0 -1,0.1 -1.3,0.1 z"
         id="path2" /></g><text
       xml:space="preserve"
       transform="scale(0.26458333)"
       id="text1"
       style="font-weight:bold;font-size:42.6667px;font-family:Gilmer;-inkscape-font-specification:'Gilmer Bold';text-align:center;white-space:pre;shape-inside:url(#rect2);display:inline;fill:#7e7e7e;fill-opacity:0.437177" /><text
       xml:space="preserve"
       transform="matrix(0.26458333,0,0,0.26458333,-0.53453905,17.639789)"
       id="text2"
       style="font-style:normal;font-variant:normal;font-weight:normal;font-stretch:normal;font-size:53.3333px;line-height:125%;font-family:'Metro Sans';-inkscape-font-specification:'Metro Sans Bold';font-variant-ligatures:normal;font-variant-position:normal;font-variant-caps:normal;font-variant-numeric:normal;font-variant-alternates:normal;font-variant-east-asian:normal;font-feature-settings:normal;font-variation-settings:normal;text-indent:0;text-align:start;text-decoration-line:none;text-decoration-style:solid;text-decoration-color:#000000;letter-spacing:0px;word-spacing:0px;text-transform:none;writing-mode:lr-tb;direction:ltr;text-orientation:mixed;dominant-baseline:auto;baseline-shift:baseline;white-space:pre;shape-inside:url(#rect3);display:inline;opacity:1;vector-effect:none;fill:#ffffff;fill-opacity:1;stroke:none;stroke-width:0.264583px;stroke-linecap:butt;stroke-linejoin:miter;stroke-miterlimit:4;stroke-dasharray:none;stroke-dashoffset:0;stroke-opacity:1;-inkscape-stroke:none"><tspan
         x="68.689453"
         y="418.24149"
         id="tspan19"><tspan
           style="font-family:Monospace;-inkscape-font-specification:Monospace"
           id="tspan18">var pi float32&#10;</tspan></tspan><tspan
         x="68.689453"
         y="484.90812"
         id="tspan21"><tspan
           style="font-family:Monospace;-inkscape-font-specification:Monospace"
           id="tspan20">b := []byte{0x18, 0x2d, 0x44, 0x54}&#10;</tspan></tspan><tspan
         x="68.689453"
         y="551.57474"
         id="tspan23"><tspan
           style="font-family:Monospace;-inkscape-font-specification:Monospace"
           id="tspan22">buf := bytes.NewReader(b)&#10;</tspan></tspan><tspan
         x="68.689453"
         y="618.24137"
         id="tspan25"><tspan
           style="font-family:Monospace;-inkscape-font-specification:Monospace"
           id="tspan24">err := binary.Read(buf, binary.LittleEndian, &amp;pi)</tspan></tspan></text></g><style
     type="text/css"
     id="style1">&#10;	.st0{fill:#F5B21B;}&#10;	.st1{fill:#283272;}&#10;</style></svg>
