<?xml version="1.0" encoding="UTF-8" standalone="no"?>
<svg
   width="500mm"
   height="250mm"
   viewBox="0 0 500 250"
   version="1.1"
   id="svg100"
   inkscape:version="1.3 (0e150ed6c4, 2023-07-21)"
   sodipodi:docname="2.svg"
   xml:space="preserve"
   xmlns:inkscape="http://www.inkscape.org/namespaces/inkscape"
   xmlns:sodipodi="http://sodipodi.sourceforge.net/DTD/sodipodi-0.dtd"
   xmlns="http://www.w3.org/2000/svg"
   xmlns:svg="http://www.w3.org/2000/svg"
   xmlns:rdf="http://www.w3.org/1999/02/22-rdf-syntax-ns#"
   xmlns:cc="http://creativecommons.org/ns#"
   xmlns:dc="http://purl.org/dc/elements/1.1/"><defs
     id="defs94"><rect
       x="8.5526247"
       y="39.28862"
       width="514.67298"
       height="171.88768"
       id="rect168" /><rect
       x="8.2853556"
       y="9.8889723"
       width="352.89918"
       height="36.70303"
       id="rect162" /><rect
       x="3.474504"
       y="191.36497"
       width="74.68869"
       height="6.4080529"
       id="rect136" /><rect
       x="3.474504"
       y="197.77945"
       width="253.90605"
       height="17.907059"
       id="rect130" /><rect
       x="8.5526247"
       y="193.50314"
       width="281.70209"
       height="12.828937"
       id="rect124" /><rect
       x="3.474504"
       y="191.36497"
       width="74.68869"
       height="6.4080529"
       id="rect136-3" /><rect
       x="3.474504"
       y="191.36497"
       width="74.68869"
       height="6.4080529"
       id="rect118" /></defs><sodipodi:namedview
     id="base"
     pagecolor="#7c7c7c"
     bordercolor="#666666"
     borderopacity="1.0"
     inkscape:pageopacity="0.0"
     inkscape:pageshadow="2"
     inkscape:zoom="0.7"
     inkscape:cx="960.71429"
     inkscape:cy="325.71429"
     inkscape:document-units="mm"
     inkscape:current-layer="layer1"
     inkscape:document-rotation="0"
     showgrid="false"
     inkscape:showpageshadow="2"
     inkscape:pagecheckerboard="0"
     inkscape:deskcolor="#d1d1d1"
     inkscape:window-width="1780"
     inkscape:window-height="1028"
     inkscape:window-x="140"
     inkscape:window-y="0"
     inkscape:window-maximized="1" /><metadata
     id="metadata97"><rdf:RDF><cc:Work
         rdf:about=""><dc:format>image/svg+xml</dc:format><dc:type
           rdf:resource="http://purl.org/dc/dcmitype/StillImage" /></cc:Work></rdf:RDF></metadata><g
     inkscape:label="Layer 1"
     inkscape:groupmode="layer"
     id="layer1"><rect
       style="fill:#898989;stroke-width:0.264583;fill-opacity:0.33980581"
       id="rect24"
       width="501.5744"
       height="251.73215"
       x="-1.1339284"
       y="-1.1339284" /><text
       xml:space="preserve"
       id="text122"
       style="font-style:normal;font-weight:normal;font-size:3.70417px;line-height:125%;font-family:Sans;letter-spacing:0px;word-spacing:0px;white-space:pre;shape-inside:url(#rect124);display:inline;fill:#000000;fill-opacity:1;stroke:none;stroke-width:0.264583px;stroke-linecap:butt;stroke-linejoin:miter;stroke-opacity:1" /><text
       xml:space="preserve"
       id="text128"
       style="font-style:normal;font-weight:normal;font-size:3.70417px;line-height:125%;font-family:Sans;letter-spacing:0px;word-spacing:0px;white-space:pre;shape-inside:url(#rect130);display:inline;fill:#000000;fill-opacity:1;stroke:none;stroke-width:0.264583px;stroke-linecap:butt;stroke-linejoin:miter;stroke-opacity:1" /><text
       xml:space="preserve"
       id="text134"
       style="font-style:normal;font-weight:normal;font-size:4.93889px;line-height:125%;font-family:Sans;letter-spacing:0px;word-spacing:0px;white-space:pre;shape-inside:url(#rect136);display:inline;opacity:0.6;fill:#000000;fill-opacity:1;stroke:none;stroke-width:0.264583px;stroke-linecap:butt;stroke-linejoin:miter;stroke-opacity:1"
       x="146.35562"
       y="0"
       transform="translate(459.97948,49.771024)"><tspan
         x="29.130746"
         y="195.85901"
         id="tspan2"><tspan
           style="font-weight:bold;font-family:'Metro Sans';-inkscape-font-specification:'Metro Sans Bold';text-align:end;text-anchor:end;fill:#ffffff"
           id="tspan1">RISC-V Summit 2023</tspan></tspan></text><text
       xml:space="preserve"
       id="text160"
       style="font-style:normal;font-weight:normal;font-size:22.5778px;line-height:125%;font-family:Sans;letter-spacing:0px;word-spacing:0px;white-space:pre;shape-inside:url(#rect162);display:inline;fill:#000000;fill-opacity:1;stroke:none;stroke-width:0.264583px;stroke-linecap:butt;stroke-linejoin:miter;stroke-opacity:1"
       transform="translate(8.8824402,14.552083)"><tspan
         x="8.2851562"
         y="30.431652"
         id="tspan4"><tspan
           style="font-weight:bold;font-family:'Metro Sans';-inkscape-font-specification:'Metro Sans Bold';fill:#ffffff"
           id="tspan3">TL;DR:</tspan></tspan></text><text
       xml:space="preserve"
       id="text166"
       style="font-style:normal;font-weight:normal;font-size:16.9333px;line-height:125%;font-family:Sans;letter-spacing:0px;word-spacing:0px;white-space:pre;shape-inside:url(#rect168);display:inline;fill:#000000;fill-opacity:1;stroke:none;stroke-width:0.264583px;stroke-linecap:butt;stroke-linejoin:miter;stroke-opacity:1"
       transform="translate(7.3705354,26.269345)"><tspan
         x="8.5527344"
         y="54.696252"
         id="tspan6"><tspan
           style="font-weight:bold;font-family:'Metro Sans';-inkscape-font-specification:'Metro Sans Bold';fill:#ffffff"
           id="tspan5">GoLang (Go) is a great language for developing RISC-V apps.&#10;</tspan></tspan><tspan
         x="8.5527344"
         y="75.862878"
         id="tspan8"><tspan
           style="font-weight:bold;font-family:'Metro Sans';-inkscape-font-specification:'Metro Sans Bold';fill:#ffffff"
           id="tspan7">&#10;</tspan></tspan><tspan
         x="8.5527344"
         y="97.029504"
         id="tspan22"><tspan
           style="font-weight:bold;font-family:'Metro Sans';-inkscape-font-specification:'Metro Sans Bold';fill:#ffffff"
           id="tspan9">Most existing Go code&#10;</tspan></tspan><tspan
         x="8.5527344"
         y="118.19613"
         id="tspan24"><tspan
           style="font-weight:bold;font-family:'Metro Sans';-inkscape-font-specification:'Metro Sans Bold';fill:#ffffff"
           id="tspan23">works out of the box.&#10;</tspan></tspan><tspan
         x="8.5527344"
         y="139.36276"
         id="tspan26"><tspan
           style="font-weight:bold;font-family:'Metro Sans';-inkscape-font-specification:'Metro Sans Bold';fill:#ffffff"
           id="tspan25">&#10;</tspan></tspan><tspan
         x="8.5527344"
         y="160.52938"
         id="tspan28"><tspan
           style="font-weight:bold;font-family:'Metro Sans';-inkscape-font-specification:'Metro Sans Bold';fill:#ffffff"
           id="tspan27">What to do when it doesn't...</tspan></tspan></text><text
       xml:space="preserve"
       style="font-style:normal;font-weight:normal;font-size:3.70417px;line-height:125%;font-family:Sans;letter-spacing:0px;word-spacing:0px;fill:#000000;fill-opacity:1;stroke:none;stroke-width:0.264583px;stroke-linecap:butt;stroke-linejoin:miter;stroke-opacity:1"
       x="306.02362"
       y="207.93568"
       id="text107"><tspan
         sodipodi:role="line"
         id="tspan105"
         x="306.02362"
         y="207.93568"
         style="stroke-width:0.264583px" /></text><g
       id="g24"
       transform="matrix(0.09782913,0,0,0.09782913,22.069141,212.47286)"><path
         class="st0"
         d="m -72.9,261.8 c 0,13.9 -8.4,26.4 -24.7,29.3 l 23,27.2 2.1,-2.9 41.5,-58.7 V 232 h -67.5 c 17.2,1.8 25.6,16 25.6,29.8 z m 466.5,51.2 -38,-65 h 16.3 l 29.7,51.5 29.6,-51.5 h 16 l -37.7,65 m -76.6,-38.6 h 27.2 V 287 h -27.2 z"
         id="path1" /><path
         class="st1"
         d="m -120.2,278.6 h 15.9 c 11.7,0 17.6,-8.3 17.6,-16.8 0,-8.4 -5.9,-16.3 -17.6,-16.3 h -21.8 v 81.7 h 40.7 l -34.8,-41.9 z m 59.1,44.4 30.6,-42.8 v 46.9 H -64.1 Z M 109,248 h 13.9 v 65 H 109 Z m 96.3,50.7 -72,-0.1 V 313 h 72.5 c 5.4,0 10,-2.1 13.9,-5.9 3.8,-3.8 5.9,-8.4 5.9,-13.9 0,-5.4 -2.1,-10 -5.9,-13.9 -3.8,-3.8 -8.4,-5.9 -13.9,-5.9 L 153,273.1 c -3.1,0 -5.6,-2.5 -5.6,-5.6 v 0 0 c 0,-3.1 2.5,-5.6 5.7,-5.6 l 72.4,-0.1 V 248 H 153 c -5.4,0 -10,2.1 -13.9,5.9 -3.8,3.8 -5.9,8.4 -5.9,13.9 0,5.5 2.1,10 5.9,13.9 3.8,3.8 8.3,5.4 13.9,5.4 h 52.7 c 3.1,0 5.7,2.5 5.6,5.7 v 0 0 c 0.1,3.2 -2.6,5.9 -6,5.9 z M 264.5,248 h 60 v 13.9 h -60 c -5,0 -9.2,1.6 -13,5.4 -3.8,3.8 -5.4,8 -5.4,13 0,5 1.7,9.2 5.4,13 3.8,3.8 8,5.4 13,5.4 h 60 V 313 h -59.9 c -8.8,0 -16.4,-3.4 -22.7,-9.7 -6.3,-6.3 -9.2,-13.9 -9.2,-22.6 0,-8.8 2.9,-16.3 9.2,-22.6 6.3,-6.7 13.9,-10.1 22.6,-10.1 z M 78.4,274.1 20.6,274 V 262.3 L 79,262.2 c 3.1,0 5.7,2.5 5.7,5.7 v 0 0 c 0,3.4 -2.8,6.2 -6.3,6.2 z M 99,313 80.5,287.4 c 5,-0.4 9.2,-2.1 12.6,-5.9 3.8,-3.8 5.9,-8.4 5.9,-13.9 0,-5.4 -2.1,-10 -5.9,-13.9 -3.8,-3.8 -8.4,-5.9 -13.9,-5.9 H 6.7 v 65 h 13.9 v -25.6 h 42.8 l 18.5,25.6 z m 374.9,-54.7 c 0,5.6 -4.4,10.1 -10.2,10.1 -5.7,0 -10.3,-4.4 -10.3,-10.1 0,-5.5 4.5,-10 10.3,-10 5.7,0.1 10.2,4.5 10.2,10 z m -18,0 c 0,4.4 3.3,8 7.8,8 4.4,0 7.6,-3.5 7.6,-7.9 0,-4.4 -3.2,-8 -7.7,-8 -4.4,0 -7.7,3.6 -7.7,7.9 z m 6.2,5.3 h -2.3 v -10 c 0.9,-0.2 2.2,-0.3 3.8,-0.3 1.9,0 2.7,0.3 3.4,0.7 0.5,0.4 1,1.2 1,2.2 0,1.1 -0.8,1.9 -2.1,2.3 v 0.2 c 1,0.4 1.5,1.1 1.8,2.4 0.3,1.5 0.5,2.1 0.7,2.5 H 466 c -0.3,-0.4 -0.5,-1.3 -0.8,-2.4 -0.2,-1.1 -0.8,-1.6 -2.1,-1.6 H 462 v 4 z m 0.1,-5.7 h 1.1 c 1.3,0 2.3,-0.4 2.3,-1.5 0,-0.9 -0.7,-1.5 -2.1,-1.5 -0.6,0 -1,0.1 -1.3,0.1 z"
         id="path2" /></g><g
       id="g1"
       transform="matrix(8.9186907,0,0,8.9186907,190.60579,76.964528)"><path
         d="m 5.987,17.15 c 0.04,0.826 0.865,0.444 1.239,0.186 0.355,-0.245 0.459,-0.041 0.49,-0.525 a 7.937,7.937 0 0 0 0.039,-0.955 2.342,2.342 0 0 0 -1.56,0.4 c -0.227,0.165 -0.651,0.69 -0.208,0.9"
         style="fill:#f6d2a2;fill-rule:evenodd"
         id="path1-3" /><path
         d="M 6.416,17.732 A 0.527,0.527 0 0 1 6.18,17.681 0.541,0.541 0 0 1 5.91,17.199 0.358,0.358 0 0 1 5.71,16.916 1.006,1.006 0 0 1 6.142,16.189 2.4,2.4 0 0 1 7.755,15.776 l 0.068,0.006 V 15.85 A 5.667,5.667 0 0 1 7.8,16.597 C 7.794,16.67 7.789,16.742 7.784,16.815 7.762,17.158 7.698,17.21 7.521,17.271 A 0.975,0.975 0 0 0 7.26,17.4 1.788,1.788 0 0 1 6.416,17.732 Z m 1.11,-1.808 A 2.2,2.2 0 0 0 6.24,16.318 c -0.162,0.118 -0.387,0.394 -0.368,0.584 a 0.219,0.219 0 0 0 0.147,0.177 l 0.043,0.02 v 0.047 c 0.01,0.206 0.072,0.338 0.185,0.394 0.218,0.108 0.624,-0.058 0.931,-0.269 a 1.127,1.127 0 0 1 0.3,-0.148 c 0.116,-0.04 0.14,-0.049 0.157,-0.318 0,-0.073 0.01,-0.146 0.016,-0.22 A 6.148,6.148 0 0 0 7.677,15.927 Q 7.6,15.924 7.527,15.924 Z"
         id="path2-6" /><path
         d="M 5.987,17.15 A 0.65,0.65 0 0 0 6.316,16.965"
         style="fill:#c6b198;fill-rule:evenodd"
         id="path3" /><path
         d="M 5.987,17.229 A 0.079,0.079 0 0 1 5.96,17.077 l 0.053,-0.019 a 0.473,0.473 0 0 0 0.241,-0.139 0.079,0.079 0 1 1 0.126,0.094 0.615,0.615 0 0 1 -0.314,0.193 l -0.051,0.018 a 0.078,0.078 0 0 1 -0.028,0.005 z"
         id="path4" /><path
         d="M 7.894,7.309 C 4.731,6.42 7.083,2.4 9.622,4.052 Z"
         style="fill:#6ad7e5;fill-rule:evenodd"
         id="path5" /><path
         d="M 7.934,7.4 7.873,7.383 A 1.927,1.927 0 0 1 6.311,5.883 2.094,2.094 0 0 1 7.288,3.904 2.116,2.116 0 0 1 9.666,3.985 l 0.06,0.039 z M 8.383,3.734 a 1.852,1.852 0 0 0 -1.01,0.3 1.933,1.933 0 0 0 -0.907,1.823 1.755,1.755 0 0 0 1.388,1.359 L 9.519,4.079 A 2.17,2.17 0 0 0 8.383,3.736 Z"
         id="path6" /><path
         d="m 21.944,3.75 c 2.5,-1.758 4.765,2.209 1.856,3.207 z"
         style="fill:#6ad7e5;fill-rule:evenodd"
         id="path7" /><path
         d="M 23.765,7.052 21.84,3.727 21.899,3.686 a 2.066,2.066 0 0 1 2.295,-0.193 2.122,2.122 0 0 1 1.044,1.965 1.881,1.881 0 0 1 -1.413,1.573 z M 22.049,3.773 23.836,6.86 A 1.712,1.712 0 0 0 25.082,5.442 1.961,1.961 0 0 0 24.115,3.628 1.857,1.857 0 0 0 22.049,3.773 Z"
         id="path8" /><path
         d="m 22.483,27.317 c 0.636,0.393 1.8,1.583 0.844,2.16 -0.916,0.839 -1.429,-0.921 -2.234,-1.165 a 2.225,2.225 0 0 1 1.39,-0.995 z"
         style="fill:#f6d2a2;fill-rule:evenodd"
         id="path9" /><path
         d="M 22.844,29.781 H 22.806 C 22.445,29.759 22.145,29.407 21.855,29.066 A 2.041,2.041 0 0 0 21.07,28.389 l -0.106,-0.032 0.066,-0.09 a 2.323,2.323 0 0 1 1.441,-1.026 H 22.5 l 0.025,0.015 c 0.407,0.252 1.247,0.988 1.243,1.654 a 0.73,0.73 0 0 1 -0.393,0.636 0.791,0.791 0 0 1 -0.531,0.235 z m -1.625,-1.5 a 2.505,2.505 0 0 1 0.756,0.687 c 0.281,0.33 0.547,0.642 0.841,0.66 a 0.626,0.626 0 0 0 0.457,-0.2 l 0.012,-0.009 a 0.578,0.578 0 0 0 0.324,-0.506 c 0,-0.532 -0.672,-1.2 -1.144,-1.5 a 2.055,2.055 0 0 0 -1.246,0.863 z"
         id="path10" /><path
         d="m 23.327,29.556 a 0.079,0.079 0 0 1 -0.07,-0.043 2.918,2.918 0 0 1 -0.123,-0.3 1.309,1.309 0 0 0 -0.286,-0.518 0.079,0.079 0 0 1 0.109,-0.113 1.447,1.447 0 0 1 0.325,0.577 2.806,2.806 0 0 0 0.116,0.28 0.079,0.079 0 0 1 -0.035,0.106 0.078,0.078 0 0 1 -0.036,0.011 z"
         id="path11" /><path
         d="M 11.124,28.662 C 10.378,28.777 9.958,29.451 9.336,29.793 8.75,30.143 8.525,29.681 8.473,29.587 8.381,29.545 8.389,29.626 8.247,29.487 7.7,28.625 8.812,28 9.39,27.572 c 0.805,-0.163 1.31,0.535 1.734,1.09 z"
         style="fill:#f6d2a2;fill-rule:evenodd"
         id="path12" /><path
         d="M 8.939,30 A 0.535,0.535 0 0 1 8.798,29.982 0.647,0.647 0 0 1 8.418,29.652 H 8.4 c -0.066,0 -0.115,-0.014 -0.213,-0.113 L 8.176,29.526 C 7.653,28.7 8.543,28.073 9.133,27.658 9.207,27.606 9.277,27.558 9.34,27.51 L 9.354,27.5 h 0.017 c 0.829,-0.168 1.353,0.518 1.773,1.069 l 0.119,0.155 -0.131,0.02 A 2.263,2.263 0 0 0 10.027,29.378 4.023,4.023 0 0 1 9.37,29.866 0.859,0.859 0 0 1 8.939,30 Z M 8.412,29.494 a 0.213,0.213 0 0 1 0.092,0.021 l 0.023,0.011 0.02,0.035 a 0.509,0.509 0 0 0 0.292,0.269 0.6,0.6 0 0 0 0.456,-0.1 3.909,3.909 0 0 0 0.633,-0.471 2.629,2.629 0 0 1 1.056,-0.644 c -0.4,-0.526 -0.862,-1.094 -1.562,-0.963 -0.061,0.044 -0.127,0.091 -0.2,0.139 -0.6,0.424 -1.352,0.952 -0.919,1.648 0.062,0.062 0.077,0.061 0.09,0.061 z"
         id="path13" /><path
         d="M 8.472,29.665 H 8.465 a 0.079,0.079 0 0 1 -0.072,-0.085 1.2,1.2 0 0 1 0.253,-0.572 1.852,1.852 0 0 0 0.165,-0.276 0.079,0.079 0 0 1 0.144,0.064 1.992,1.992 0 0 1 -0.178,0.3 1.065,1.065 0 0 0 -0.226,0.5 0.079,0.079 0 0 1 -0.079,0.069 z"
         id="path14" /><path
         d="M 8.026,6.2 C 7.609,5.979 7.303,5.68 7.558,5.2 7.794,4.753 8.233,4.8 8.65,5.022 Z"
         style="fill-rule:evenodd"
         id="path15" /><path
         d="m 23.141,5.778 c 0.417,-0.221 0.723,-0.52 0.468,-1 C 23.373,4.331 22.934,4.378 22.517,4.6 Z"
         style="fill-rule:evenodd"
         id="path16" /><path
         d="m 26.013,17.046 c -0.04,0.826 -0.865,0.444 -1.239,0.186 -0.355,-0.245 -0.459,-0.041 -0.49,-0.525 a 7.936,7.936 0 0 1 -0.039,-0.955 2.342,2.342 0 0 1 1.56,0.4 c 0.227,0.165 0.651,0.69 0.208,0.9"
         style="fill:#f6d2a2;fill-rule:evenodd"
         id="path17" /><path
         d="M 25.584,17.627 A 1.788,1.788 0 0 1 24.73,17.296 0.975,0.975 0 0 0 24.469,17.167 c -0.177,-0.062 -0.241,-0.114 -0.263,-0.456 0,-0.073 -0.01,-0.145 -0.016,-0.218 a 5.676,5.676 0 0 1 -0.023,-0.747 v -0.068 l 0.068,-0.006 a 2.4,2.4 0 0 1 1.613,0.413 1.006,1.006 0 0 1 0.432,0.727 0.358,0.358 0 0 1 -0.2,0.283 0.541,0.541 0 0 1 -0.27,0.482 0.527,0.527 0 0 1 -0.226,0.05 z m -1.263,-1.8 a 6.148,6.148 0 0 0 0.026,0.658 c 0.006,0.073 0.011,0.146 0.016,0.22 0.017,0.269 0.041,0.277 0.157,0.318 a 1.127,1.127 0 0 1 0.3,0.148 c 0.306,0.212 0.713,0.377 0.931,0.269 0.113,-0.056 0.175,-0.188 0.185,-0.394 v -0.047 l 0.043,-0.02 a 0.219,0.219 0 0 0 0.147,-0.177 c 0.018,-0.19 -0.206,-0.466 -0.368,-0.584 a 2.232,2.232 0 0 0 -1.437,-0.394 z"
         id="path18" /><path
         d="M 26.013,17.046 A 0.65,0.65 0 0 1 25.684,16.861"
         style="fill:#c6b198;fill-rule:evenodd"
         id="path19" /><path
         d="m 26.013,17.124 a 0.078,0.078 0 0 1 -0.027,0 l -0.051,-0.018 a 0.614,0.614 0 0 1 -0.314,-0.193 0.079,0.079 0 1 1 0.126,-0.094 0.473,0.473 0 0 0 0.241,0.139 l 0.053,0.019 a 0.079,0.079 0 0 1 -0.027,0.152 z"
         id="path20" /><path
         d="m 15.683,2.079 c 3.166,0 6.134,0.453 7.681,3.495 1.389,3.409 0.895,7.086 1.107,10.689 0.182,3.094 0.585,6.668 -0.85,9.536 -1.51,3.016 -5.283,3.775 -8.392,3.664 C 12.787,29.376 9.838,28.579 8.46,26.348 6.843,23.731 7.609,19.839 7.726,16.927 7.865,13.478 6.792,10.017 7.926,6.642 9.102,3.142 12.272,2.349 15.684,2.079"
         style="fill:#6ad7e5;fill-rule:evenodd"
         id="path21" /><path
         d="m 15.77,29.55 c -0.2,0 -0.38,0 -0.543,-0.01 -1.5,-0.054 -5.176,-0.469 -6.833,-3.152 C 7.087,24.272 7.32,21.347 7.525,18.766 7.577,18.117 7.625,17.503 7.649,16.923 A 29.673,29.673 0 0 0 7.492,13.257 16.216,16.216 0 0 1 7.852,6.616 5.812,5.812 0 0 1 10.932,3.077 12.948,12.948 0 0 1 15.677,2 h 0.006 c 3.091,0 6.17,0.429 7.751,3.538 v 0.006 a 20.518,20.518 0 0 1 1.044,7.762 c 0.005,0.969 0.011,1.972 0.068,2.952 0.017,0.3 0.037,0.6 0.057,0.9 0.184,2.841 0.392,6.062 -0.915,8.673 -1.629,3.261 -5.741,3.719 -7.918,3.719 z M 15.686,2.157 C 12.392,2.418 9.186,3.145 7.999,6.666 A 16.1,16.1 0 0 0 7.646,13.244 29.788,29.788 0 0 1 7.8,16.93 c -0.024,0.584 -0.072,1.2 -0.124,1.85 -0.2,2.557 -0.434,5.455 0.846,7.527 1.618,2.619 5.228,3.025 6.705,3.077 1.922,0.069 6.579,-0.147 8.318,-3.621 1.288,-2.573 1.081,-5.771 0.9,-8.592 -0.02,-0.3 -0.039,-0.606 -0.057,-0.9 -0.058,-0.984 -0.063,-1.989 -0.068,-2.96 a 20.408,20.408 0 0 0 -1.031,-7.7 C 21.75,2.576 18.725,2.158 15.686,2.157 Z"
         id="path22" /><path
         d="m 16.242,6.329 c 0.568,3.3 5.97,2.431 5.194,-0.9 -0.7,-2.988 -5.383,-2.161 -5.194,0.9"
         style="fill:#ffffff;fill-rule:evenodd"
         id="path23" /><path
         d="M 18.808,8.485 A 3.025,3.025 0 0 1 17.82,8.323 2.444,2.444 0 0 1 16.167,6.341 V 6.333 A 2.672,2.672 0 0 1 18.583,3.519 2.482,2.482 0 0 1 21.51,5.41 2.312,2.312 0 0 1 20.837,7.753 3.072,3.072 0 0 1 18.808,8.485 Z M 16.318,6.32 A 2.3,2.3 0 0 0 17.87,8.18 2.987,2.987 0 0 0 20.735,7.64 2.165,2.165 0 0 0 21.362,5.44 2.335,2.335 0 0 0 18.6,3.67 2.524,2.524 0 0 0 16.318,6.32 Z"
         id="path24" /><path
         d="M 9.788,6.863 C 10.524,9.74 15.13,9 14.956,6.118 14.748,2.662 9.083,3.329 9.787,6.863"
         style="fill:#ffffff;fill-rule:evenodd"
         id="path25" /><path
         d="M 12.245,8.761 A 2.826,2.826 0 0 1 10.9,8.435 2.384,2.384 0 0 1 9.716,6.882 v 0 a 2.411,2.411 0 0 1 0.826,-2.472 3.107,3.107 0 0 1 3.087,-0.394 2.335,2.335 0 0 1 1.4,2.1 2.529,2.529 0 0 1 -2.29,2.609 3.2,3.2 0 0 1 -0.494,0.036 z M 9.86,6.847 A 2.4,2.4 0 0 0 12.718,8.576 2.385,2.385 0 0 0 14.883,6.122 2.193,2.193 0 0 0 13.569,4.146 2.953,2.953 0 0 0 10.634,4.52 2.269,2.269 0 0 0 9.86,6.847 Z"
         id="path26" /><path
         d="m 16.894,10.294 a 7.45,7.45 0 0 1 0.016,1.369 c -0.11,0.207 -0.325,0.229 -0.51,0.313 a 0.751,0.751 0 0 1 -0.575,-0.449 9.72,9.72 0 0 1 0.041,-1.549 z"
         style="fill:#ffffff;fill-rule:evenodd"
         id="path27" /><path
         d="m 16.411,12.057 h -0.023 a 0.828,0.828 0 0 1 -0.635,-0.5 v -0.01 -0.011 a 5.2,5.2 0 0 1 0.009,-1.063 c 0.013,-0.163 0.026,-0.331 0.031,-0.5 v -0.1 l 1.181,0.362 v 0.058 c 0,0.142 0.012,0.289 0.024,0.444 a 3.746,3.746 0 0 1 -0.008,0.939 v 0.012 l -0.006,0.011 a 0.658,0.658 0 0 1 -0.414,0.3 c -0.047,0.017 -0.091,0.032 -0.134,0.052 z m -0.509,-0.551 a 0.671,0.671 0 0 0 0.488,0.388 c 0.041,-0.017 0.083,-0.032 0.123,-0.047 a 0.525,0.525 0 0 0 0.322,-0.211 3.683,3.683 0 0 0 0,-0.887 c -0.01,-0.137 -0.02,-0.268 -0.023,-0.4 l -0.875,-0.268 c -0.007,0.136 -0.017,0.271 -0.027,0.4 a 5.05,5.05 0 0 0 -0.01,1.025 z"
         id="path28" /><ellipse
         cx="11.058"
         cy="6.3940001"
         rx="0.778"
         ry="0.84200001"
         id="ellipse28" /><ellipse
         cx="11.412"
         cy="6.5840001"
         rx="0.183"
         ry="0.214"
         style="fill:#ffffff"
         id="ellipse29" /><ellipse
         cx="17.573999"
         cy="6.184"
         rx="0.76499999"
         ry="0.84200001"
         id="ellipse30" /><ellipse
         cx="17.922001"
         cy="6.3740001"
         rx="0.18000001"
         ry="0.214"
         style="fill:#ffffff"
         id="ellipse31" /><path
         d="m 14.671,10.247 c -0.339,0.822 0.189,2.467 1.11,1.254 a 9.72,9.72 0 0 1 0.041,-1.549 z"
         style="fill:#ffffff;fill-rule:evenodd"
         id="path31" /><path
         d="M 15.166,12.013 A 0.451,0.451 0 0 1 14.94,11.951 1.6,1.6 0 0 1 14.599,10.218 L 14.614,10.182 15.9,9.85 v 0.1 c -0.005,0.17 -0.019,0.34 -0.032,0.5 a 5,5 0 0 0 -0.01,1.031 v 0.032 l -0.019,0.026 c -0.265,0.361 -0.494,0.474 -0.673,0.474 z m -0.436,-1.7 a 1.458,1.458 0 0 0 0.288,1.5 c 0.238,0.136 0.5,-0.1 0.681,-0.335 a 5.349,5.349 0 0 1 0.013,-1.031 c 0.01,-0.129 0.02,-0.261 0.027,-0.392 z"
         id="path32" /><path
         d="m 14.787,8.663 a 1,1 0 0 0 -0.821,1.4 c 0.435,0.788 1.407,-0.07 2.013,0.011 0.7,0.014 1.268,0.737 1.827,0.131 0.622,-0.674 -0.268,-1.331 -0.964,-1.624 z"
         style="fill:#f6d2a2;fill-rule:evenodd"
         id="path33" /><path
         d="m 17.308,10.526 a 1.727,1.727 0 0 1 -0.641,-0.179 1.928,1.928 0 0 0 -0.689,-0.194 h -0.009 a 1.749,1.749 0 0 0 -0.712,0.152 c -0.491,0.17 -1.048,0.362 -1.36,-0.2 a 0.946,0.946 0 0 1 0.014,-0.917 1.118,1.118 0 0 1 0.869,-0.6 v 0 L 16.857,8.5 16.873,8.507 c 0.517,0.218 1.106,0.617 1.207,1.083 a 0.836,0.836 0 0 1 -0.772,0.934 z M 15.985,10 a 2.056,2.056 0 0 1 0.743,0.206 c 0.393,0.165 0.7,0.295 1.021,-0.05 a 0.58,0.58 0 0 0 0.178,-0.528 c -0.087,-0.4 -0.642,-0.769 -1.1,-0.964 l -2.036,0.081 a 0.973,0.973 0 0 0 -0.742,0.517 0.792,0.792 0 0 0 -0.015,0.767 c 0.248,0.449 0.7,0.294 1.17,0.13 A 1.856,1.856 0 0 1 15.985,10 Z"
         style="fill:#231f20"
         id="path34" /><path
         d="M 14.708,8.63 C 14.661,7.535 16.75,7.4 17,8.315 17.25,9.23 14.814,9.443 14.711,8.631 Z"
         style="fill-rule:evenodd"
         id="path35" /></g></g><style
     type="text/css"
     id="style1">&#10;	.st0{fill:#F5B21B;}&#10;	.st1{fill:#283272;}&#10;</style></svg>
